# xmcd
#
# Track frame offsets: 
#        150
#        10042
#        27513
#        48530
#        73448
#        97696
#        126989
#        144383
#        166686
#        182484
#        198490
#
# Disc length: 2867 seconds
#
# Revision: 3
# Processed by: cddbd v1.5.2PL0 Copyright (c) Steve Scherf et al.
# Submitted via: ExactAudioCopyFreeDBPlugin 1.0
#
DISCID=920b310b
DTITLE=The Isley Brothers - Harvest for the World
DYEAR=1976
DGENRE=Rhythm and Blues
TTITLE0=Harvest for the World (Prelude)
TTITLE1=Harvest for the World
TTITLE2=People of Today
TTITLE3=Who Loves You Better
TTITLE4=(At Your Best) You Are Love
TTITLE5=Let Me Down Easy
TTITLE6=So You Wanna Stay Down
TTITLE7=You Still Feel the Need
TTITLE8=Who Loves You Better (Part 1) (mono) (single version)
TTITLE9=Harvest for the World (Part 1) (single version)
TTITLE10=Harvest for the World (instrumental)
EXTD=
EXTT0=
EXTT1=
EXTT2=
EXTT3=
EXTT4=
EXTT5=
EXTT6=
EXTT7=
EXTT8=
EXTT9=
EXTT10=
PLAYORDER=
